<?xml version="1.0" encoding="UTF-8"?>
<svg width="12px" height="11px" viewBox="0 0 12 11" version="1.1" xmlns="http://www.w3.org/2000/svg" xmlns:xlink="http://www.w3.org/1999/xlink">
    <title>icons/outdent</title>
    <g id="国内股票资产总览" stroke="none" stroke-width="1" fill="none" fill-rule="evenodd">
        <g id="表格尺寸标注" transform="translate(-254.000000, -114.000000)">
            <g id="资产性质" transform="translate(0.000000, 112.000000)">
                <g id="icons/outdent" transform="translate(252.000000, -0.000000)">
                    <path d="M16,3.55271368e-15 L16,16 L0,16 L0,3.55271368e-15 L16,3.55271368e-15 Z" id="#" transform="translate(8.000000, 8.000000) rotate(-180.000000) translate(-8.000000, -8.000000) "></path>
                    <path d="M2.56903559,7.90236893 L4.43096441,9.76429774 C4.56113917,9.8944725 4.77219416,9.8944725 4.90236893,9.76429774 C4.96488105,9.70178561 5,9.61700098 5,9.52859548 L5,5.80473785 C5,5.62064294 4.85076158,5.47140452 4.66666667,5.47140452 C4.57826117,5.47140452 4.49347653,5.50652347 4.43096441,5.56903559 L2.56903559,7.43096441 C2.43886083,7.56113917 2.43886083,7.77219416 2.56903559,7.90236893 Z" id="路径" fill="#323847" fill-rule="nonzero"></path>
                    <path d="M3.16666667,2.66666667 L12.8333333,2.66666667 C13.1094757,2.66666667 13.3333333,2.89052429 13.3333333,3.16666667 C13.3333333,3.44280904 13.1094757,3.66666667 12.8333333,3.66666667 L3.16666667,3.66666667 C2.89052429,3.66666667 2.66666667,3.44280904 2.66666667,3.16666667 C2.66666667,2.89052429 2.89052429,2.66666667 3.16666667,2.66666667 Z" id="矩形" fill="#323847"></path>
                    <path d="M3.16666667,11.6666667 L12.8333333,11.6666667 C13.1094757,11.6666667 13.3333333,11.8905243 13.3333333,12.1666667 C13.3333333,12.442809 13.1094757,12.6666667 12.8333333,12.6666667 L3.16666667,12.6666667 C2.89052429,12.6666667 2.66666667,12.442809 2.66666667,12.1666667 C2.66666667,11.8905243 2.89052429,11.6666667 3.16666667,11.6666667 Z" id="矩形备份-4" fill="#323847"></path>
                    <path d="M6.16666667,5.66666667 L12.8333333,5.66666667 C13.1094757,5.66666667 13.3333333,5.89052429 13.3333333,6.16666667 C13.3333333,6.44280904 13.1094757,6.66666667 12.8333333,6.66666667 L6.16666667,6.66666667 C5.89052429,6.66666667 5.66666667,6.44280904 5.66666667,6.16666667 C5.66666667,5.89052429 5.89052429,5.66666667 6.16666667,5.66666667 Z" id="矩形" fill="#323847"></path>
                    <path d="M6.16666667,8.66666667 L12.8333333,8.66666667 C13.1094757,8.66666667 13.3333333,8.89052429 13.3333333,9.16666667 C13.3333333,9.44280904 13.1094757,9.66666667 12.8333333,9.66666667 L6.16666667,9.66666667 C5.89052429,9.66666667 5.66666667,9.44280904 5.66666667,9.16666667 C5.66666667,8.89052429 5.89052429,8.66666667 6.16666667,8.66666667 Z" id="矩形备份-3" fill="#323847"></path>
                </g>
            </g>
        </g>
    </g>
</svg>